<svg
    width="124"
    height="32"
    viewBox="0 0 124 32"
    fill="none"
    xmlns="http://www.w3.org/2000/svg"
>
    <path
        d="M45.5903 4.05286V26.5374C45.5903 28.7577 43.793 30.5903 41.5374 30.5903H19.0529C16.7974 30.5903 15 28.793 15 26.5374V4.05286C15 1.79736 16.7974 0 19.0529 0H41.5374C43.793 0 45.5903 1.79736 45.5903 4.05286Z"
        fill="#FF7E18"
    />
    <path
        d="M89.2906 14.6256C89.8193 15.119 90.2422 15.6828 90.5241 16.3524C90.806 17.022 90.9823 17.7269 91.0527 18.4317C91.088 19.1366 91.0175 19.8414 90.8413 20.5815C90.6651 21.2864 90.4184 21.9912 90.066 22.5903C89.7135 23.2247 89.2906 23.7886 88.762 24.282C88.2334 24.7753 87.6695 25.1278 87.0351 25.4097C86.4008 25.6564 85.6959 25.7621 84.9558 25.6916C84.2157 25.6212 83.4052 25.4097 82.5946 24.9868C81.5726 24.4229 80.5505 23.7181 79.5285 22.8723C78.7179 22.2027 78.1541 21.4273 77.7664 20.5463C77.3787 19.7005 77.2025 18.8546 77.2378 18.0441C77.273 17.2335 77.414 16.4229 77.6959 15.6124C77.9778 14.8018 78.4008 14.0969 78.9294 13.4978C79.458 12.8987 80.0571 12.4053 80.7267 11.9824C81.3611 11.5595 82.066 11.348 82.806 11.3128C83.5461 11.2775 84.2862 11.4538 84.9911 11.7709C86.7532 12.7225 88.1981 13.674 89.2906 14.6256ZM86.5065 14.4141C85.273 13.5683 84.0043 13.7093 82.7003 14.8018C81.6078 15.7181 80.8677 16.9516 80.5153 18.5022C80.0924 20.2643 80.4096 21.5683 81.4668 22.4846C81.6078 22.5903 81.7488 22.6961 81.8897 22.8018C82.6298 23.2247 83.4052 23.2952 84.1805 23.0837C84.9558 22.8723 85.6607 22.3789 86.2245 21.6035C86.8237 20.8282 87.2818 20.0529 87.599 19.1718C87.9162 18.2908 88.0219 17.445 87.8457 16.5287C87.6695 15.6124 87.2113 14.9075 86.5065 14.4141Z"
        fill="#1734D5"
    />
    <path
        d="M48.1276 15.119L46.6122 12.5815C47.9162 12.2643 49.3611 11.9472 50.9118 11.63C52.4977 11.348 53.4845 11.2071 53.9074 11.2071C54.3303 11.2423 55.1408 11.8414 56.3391 13.0397C57.5726 14.2379 58.3831 15.1542 58.806 15.7886C58.947 16 59.0175 16.7401 59.0175 18.0088C59.0175 19.2775 58.9823 20.7225 58.947 22.3436C58.9118 23.9648 58.8765 25.0573 58.9118 25.6564L55.458 24.8458L55.4933 23.4361C54.0131 24.9516 52.7796 25.6916 51.8281 25.6916C50.947 25.6564 49.8193 24.8458 48.4448 23.1542C47.0704 21.4978 46.4008 20.2996 46.4008 19.5595C46.4008 18.9956 46.7884 18.467 47.5638 17.9736C48.3391 17.4802 49.2906 17.1278 50.4184 16.8458C51.5461 16.5639 52.5329 16.3877 53.414 16.2115C54.295 16.0705 55.0351 15.9648 55.6342 15.8943L55.6695 15.1542C55.7047 14.2731 55.2113 13.7798 54.2598 13.7093C53.3787 13.6388 51.5109 14.0617 48.6563 14.9075H48.621L48.5858 14.9427H48.5153L48.48 14.978H48.4448L48.4096 15.0132H48.3391L48.3038 15.0485H48.1981L48.1629 15.0837H48.0924L48.1276 15.119ZM49.5021 22.0617C49.6783 22.3084 49.9955 22.4846 50.4536 22.5551C50.9118 22.6256 51.6166 22.5198 52.5329 22.1674C53.4845 21.8502 54.4712 21.2864 55.5638 20.4758L55.599 18.0441C50.7356 19.489 48.6915 20.8282 49.5021 22.0617Z"
        fill="#1734D5"
    />
    <path
        d="M70.8589 11.5947L74.3126 12.3701V26.5727C74.3126 27.6652 73.8545 28.6872 72.903 29.6388C71.9514 30.5903 70.9294 31.2599 69.7664 31.6476C68.6386 32.0353 67.7576 32.1057 67.1232 31.8238C66.8765 31.7181 66.5241 31.5066 66.0307 31.2247C65.5373 30.9427 64.9382 30.5903 64.1981 30.1674C63.458 29.7445 62.9294 29.3921 62.5417 29.1806L63.2818 28.0881C64.3743 28.7225 65.1144 29.1454 65.5021 29.3216C66.8413 29.9912 68.0748 29.956 69.2025 29.2159C70.3303 28.4758 70.8589 27.0309 70.8589 24.9163V23.8943C69.5549 25.1278 68.3919 25.7269 67.4052 25.6564C66.806 25.6212 65.8545 24.9516 64.5153 23.6124C63.2113 22.2731 62.4712 21.3568 62.4008 20.8282C62.295 20.0881 62.2245 16.9868 62.2245 11.5242L65.6783 12.2996C65.5726 18.7137 65.643 22.0617 65.8897 22.4141C66.4536 23.0837 67.229 23.119 68.251 22.4846C69.273 21.8502 70.1541 20.8987 70.8941 19.63V11.5947H70.8589Z"
        fill="#1734D5"
    />
    <path
        d="M97.1849 24.3172C97.2906 24.5639 98.5946 24.4229 101.097 23.8943C103.599 23.3657 104.938 23.1894 105.114 23.3657C105.925 24.141 106.418 24.9516 106.665 25.7974C106.912 26.6432 106.877 27.4185 106.595 28.1234C106.313 28.8282 105.854 29.4626 105.291 30.0617C104.727 30.6608 104.022 31.119 103.211 31.4361C102.401 31.7533 101.59 31.9295 100.744 31.9295C99.3347 31.9295 97.925 31.5066 96.5153 30.6961C95.1056 29.8855 94.2598 29.1806 93.9426 28.5815C93.9074 28.511 93.9074 28.4405 93.9778 28.3348C94.0483 28.2291 94.1188 28.1234 94.295 27.9472C94.436 27.8062 94.6122 27.63 94.7884 27.489C94.9646 27.3128 95.2113 27.1013 95.4933 26.8194C95.7752 26.5375 96.0571 26.2555 96.3391 26.0088C96.1276 25.7269 95.4228 24.5991 94.1893 22.6256C94.1541 22.4846 94.1188 22.3789 94.1188 22.3084C94.0836 22.2379 94.1541 22.1674 94.2598 22.0969C94.3655 22.0264 94.5065 21.9912 94.6474 21.9207C94.7884 21.8855 94.9646 21.815 95.2113 21.7798C95.458 21.7445 95.7047 21.674 95.9162 21.6388C96.1629 21.6035 96.4448 21.5331 96.762 21.4626C97.1144 21.3921 97.4316 21.2864 97.7135 21.2159C97.3963 21.0044 96.7267 20.511 95.8104 19.7005C95.2466 19.2071 94.7884 18.7137 94.5065 18.1498C94.2245 17.5859 94.0483 17.0573 94.0483 16.5287C94.0483 16.0353 94.1188 15.5066 94.295 14.978C94.4712 14.4494 94.7179 13.9912 95.0704 13.6035C95.4228 13.1806 95.8104 12.8282 96.1981 12.4758C96.5858 12.1234 97.0439 11.8767 97.5021 11.7005C97.9602 11.5242 98.4184 11.4185 98.806 11.348C99.2289 11.2776 99.6166 11.348 99.969 11.5595C101.238 12.1586 102.119 12.6168 102.647 12.9339H107.581L108.392 14.8018H104.621C106.806 18.6784 105.291 21.4978 100.11 23.2599C99.6871 23.4009 99.1585 23.5419 98.4889 23.7533C97.6078 24.0353 97.1849 24.2467 97.1849 24.3172ZM97.1849 27.1718L97.0439 27.0309L95.8104 28.5463C97.1497 29.1454 98.4889 29.3568 99.8281 29.1806C101.167 29.0044 102.295 28.6168 103.282 27.9472C104.269 27.2776 104.727 26.6079 104.727 25.8679C104.727 25.7269 104.198 25.8679 103.106 26.2555C102.013 26.6432 100.921 26.9956 99.8281 27.3128C98.6651 27.63 97.784 27.5947 97.1849 27.1718ZM101.59 14.0264C100.815 13.4626 99.9338 13.5331 98.9823 14.3084C98.0307 15.0837 97.4668 16 97.2554 17.1278C97.0439 18.2555 97.3611 19.1718 98.1717 19.9119C98.947 20.4405 99.7928 20.3348 100.78 19.63C101.766 18.9251 102.366 18.0441 102.577 16.9516C102.788 15.859 102.471 14.9075 101.59 14.0264Z"
        fill="#1734D5"
    />
    <path
        d="M108.392 7.50662H32.4801L32.5153 25.7974L28.3215 24.9163V7.50662H21.9426L20.251 4.79297H106.7L108.392 7.50662Z"
        fill="#1734D5"
    />
</svg>